<svg width="336" height="276" fill="none" xmlns="http://www.w3.org/2000/svg"><g filter="url(#a)"><rect x="8" width="320" height="260" rx="5" fill="#fff"/><g clip-path="url(#b)"><path d="M69.455 145.797a1.258 1.258 0 0 0-.74.26c-.632-1.668-1.61-2.741-2.708-2.741s-2.075 1.073-2.707 2.741a1.258 1.258 0 0 0-.74-.26c-1.248 0-2.26 2.11-2.26 4.712h11.414c0-2.602-1.012-4.712-2.26-4.712Z" fill="#00BAFC"/><path d="M114.803 150.246H56.937v.526h57.866v-.526Z" fill="#3F3D56"/><path d="M275.142 134.743a1.26 1.26 0 0 0-.741.26c-.631-1.668-1.609-2.74-2.707-2.74-1.098 0-2.075 1.072-2.707 2.74a1.255 1.255 0 0 0-.74-.26c-1.248 0-2.259 2.11-2.259 4.712h11.413c0-2.602-1.012-4.712-2.259-4.712Z" fill="#00BAFC"/><path d="M250.585 48.16h-55.102v-1.136h-24.985v1.136H115.17a3.732 3.732 0 0 0-3.444 2.3 3.732 3.732 0 0 0-.283 1.427v75.451a3.726 3.726 0 0 0 3.727 3.727h135.415a3.727 3.727 0 0 0 3.727-3.727v-75.45a3.715 3.715 0 0 0-1.092-2.636 3.727 3.727 0 0 0-2.635-1.092Z" fill="#3F3D56"/><path opacity=".2" d="M249.314 54.746H116.441v74.957h132.873V54.746Z" fill="#000"/><path d="M182.764 52.703a1.363 1.363 0 1 0 0-2.727 1.363 1.363 0 0 0 0 2.727Z" fill="#00BAFC"/><path d="M279.063 138.929H86.265v.526h192.798v-.526Z" fill="#3F3D56"/><path d="M201.032 82.751v-5.546a6.803 6.803 0 0 0-6.805-6.804h-5.545c0-.748-2.406-1.362-5.463-1.42v-6.687a3.803 3.803 0 0 0 3.318-4.008 3.802 3.802 0 0 0-7.585 0 3.8 3.8 0 0 0 3.317 4.008v6.687c-3.056.058-5.462.672-5.462 1.42h-6.496a6.808 6.808 0 0 0-6.286 4.2 6.803 6.803 0 0 0-.518 2.605v5.545c-.787 0-1.425 2.658-1.425 5.938 0 3.279.638 5.937 1.425 5.937v6.496a6.808 6.808 0 0 0 4.2 6.286 6.808 6.808 0 0 0 2.604.518h23.916a6.8 6.8 0 0 0 4.812-1.993 6.808 6.808 0 0 0 1.993-4.811v-6.496c.787 0 1.425-2.658 1.425-5.937 0-3.28-.638-5.938-1.425-5.938Z" fill="#00BAFC"/><path d="M171.674 72.539h21.191a6.027 6.027 0 0 1 6.029 6.029v21.191a6.03 6.03 0 0 1-6.029 6.029h-21.191a6.034 6.034 0 0 1-4.264-1.765 6.033 6.033 0 0 1-1.765-4.264V78.568a6.03 6.03 0 0 1 6.029-6.03Z" fill="#3F3D56"/><path d="M174.669 88.332a4.279 4.279 0 0 1-4.275-4.275.24.24 0 0 1 .238-.237.238.238 0 0 1 .237.237 3.803 3.803 0 0 0 3.8 3.8 3.799 3.799 0 0 0 3.8-3.8.236.236 0 1 1 .475 0 4.28 4.28 0 0 1-4.275 4.275ZM182.269 96.407a3.331 3.331 0 0 1-3.325-3.325.236.236 0 1 1 .475 0 2.852 2.852 0 0 0 4.866 2.015c.534-.534.834-1.259.834-2.015a.236.236 0 1 1 .475 0 3.326 3.326 0 0 1-3.325 3.325ZM189.869 88.332a4.279 4.279 0 0 1-4.275-4.275.236.236 0 1 1 .475 0 3.803 3.803 0 0 0 3.8 3.8 3.799 3.799 0 0 0 3.8-3.8.236.236 0 1 1 .475 0 4.28 4.28 0 0 1-4.275 4.275Z" fill="#00BAFC"/><path d="M174.669 86.432a2.138 2.138 0 1 0 0-4.275 2.138 2.138 0 0 0 0 4.275ZM189.869 86.432a2.138 2.138 0 1 0 0-4.275 2.138 2.138 0 0 0 0 4.275ZM182.269 95.22c1.05 0 1.9-.426 1.9-.95 0-.525-.85-.95-1.9-.95-1.049 0-1.9.425-1.9.95 0 .524.851.95 1.9.95Z" fill="#00BAFC"/><path d="M258.043 128.339h-12.968v-.934a.186.186 0 0 0-.185-.185h-4.446a.187.187 0 0 0-.131.054.186.186 0 0 0-.054.131v.934h-2.779v-.934a.195.195 0 0 0-.014-.071.189.189 0 0 0-.172-.114h-4.446a.186.186 0 0 0-.185.185v.934h-2.779v-.934a.186.186 0 0 0-.185-.185h-4.446a.186.186 0 0 0-.185.185v.934h-2.779v-.934a.186.186 0 0 0-.185-.185h-4.446a.187.187 0 0 0-.172.114.195.195 0 0 0-.014.071v.934h-2.779v-.934a.186.186 0 0 0-.185-.185h-4.446a.186.186 0 0 0-.185.185v.934h-2.779v-.934a.186.186 0 0 0-.185-.185h-4.446a.187.187 0 0 0-.131.054.186.186 0 0 0-.055.131v.934h-2.778v-.934a.195.195 0 0 0-.014-.071.189.189 0 0 0-.172-.114H164.49a.187.187 0 0 0-.172.114.195.195 0 0 0-.014.071v.934h-2.778v-.934a.195.195 0 0 0-.014-.071.189.189 0 0 0-.172-.114h-4.446a.186.186 0 0 0-.185.185v.934h-2.779v-.934a.186.186 0 0 0-.185-.185h-4.446a.187.187 0 0 0-.131.054.186.186 0 0 0-.054.131v.934h-2.779v-.934a.195.195 0 0 0-.014-.071.203.203 0 0 0-.04-.06.19.19 0 0 0-.131-.054h-4.447a.186.186 0 0 0-.185.185v.934h-2.779v-.934a.186.186 0 0 0-.185-.185h-4.446a.186.186 0 0 0-.185.185v.934h-2.779v-.934a.186.186 0 0 0-.185-.185h-4.446a.187.187 0 0 0-.172.114.195.195 0 0 0-.014.071v.934h-2.778v-.934a.186.186 0 0 0-.186-.185h-4.446a.186.186 0 0 0-.185.185v.934h-8.522a4.435 4.435 0 0 0-4.107 2.745 4.44 4.44 0 0 0-.339 1.702v2.01a4.446 4.446 0 0 0 4.446 4.446h147.833a4.446 4.446 0 0 0 4.446-4.446v-2.01c0-.584-.115-1.162-.338-1.702a4.458 4.458 0 0 0-2.407-2.406 4.432 4.432 0 0 0-1.701-.339Z" fill="#3F3D56"/><path d="M225.406 107.629h-88.64v.526h88.64v-.526Z" fill="#00BAFC"/><path d="M143.078 107.366h-21.831a146.02 146.02 0 0 0 0-24.725h21.831c-1.202 8.468-1.272 16.723 0 24.725Z" fill="#D0CDE1"/><path d="M140.185 87.639h-15.782v1.052h15.782v-1.052ZM140.185 91.058h-15.782v1.052h15.782v-1.052ZM140.185 94.478h-15.782v1.052h15.782v-1.052ZM140.185 97.897h-15.782v1.052h15.782v-1.052ZM140.185 101.316h-15.782v1.052h15.782v-1.052Z" fill="#3F3D56"/><path d="M85.066 24.844s-3.43-1.225-5.635 3.675c-2.205 4.9-5.635 10.29-5.635 10.29l1.96.49s.49-3.43 1.715-3.92l-.49 4.41s14.7 5.146 21.316-.49l-.245-1.715s.98.245.98 1.715l.735-.735s-.735-1.47-2.94-3.43c-1.448-1.286-1.945-3.734-2.116-5.264a6.37 6.37 0 0 0-1.467-3.47c-1.465-1.698-4.135-3.503-8.178-1.556Z" fill="#2F2E41"/><path d="m75.174 132.929 1.052 6.05 4.209-.79.788-5.26h-6.05Z" fill="#FFB9B9"/><path d="m81.224 136.348-5.787.526.263 4.735-.263 6.049s-3.42 6.839 1.578 6.313c4.998-.526 4.472-3.156 4.472-3.156l1.315-1.578-.79-3.946-.788-8.943Z" fill="#2F2E41"/><path d="m98.846 132.929-1.052 6.05-4.208-.79-.79-5.26h6.05Z" fill="#FFB9B9"/><path d="m92.797 136.348 5.786.526-.263 4.735.263 6.049s3.42 6.839-1.578 6.313c-4.997-.526-4.471-3.156-4.471-3.156l-1.316-1.578.79-3.946.789-8.943Z" fill="#2F2E41"/><path d="M86.747 41.133a6.05 6.05 0 1 0 0-12.1 6.05 6.05 0 0 0 0 12.1Z" fill="#FFB9B9"/><path d="m82.802 38.24.789 9.468 7.365-.263s-2.105-6.05-.79-8.417l-7.364-.789Z" fill="#FFB9B9"/><path d="m87.01 45.867 3.03-1.89 3.283 1.627 5.26 2.367-1.84 22.358s4.208 13.94 3.418 20.779c-.789 6.838 8.68 41.032 1.053 42.61-7.628 1.578-13.152 3.156-13.415.526-.263-2.63-.789-42.873-.789-42.873s-.789 42.61-3.945 43.136c-3.157.526-16.834 2.63-15.782-.526 1.052-3.156 8.154-58.392 11.573-61.548l.526-2.63-4.471-21.306 8.397-4.185 3.702 1.555Z" fill="#2F2E41"/><path d="m71.228 78.482-.263 10.784s-2.532 10.647 1.76 10.585c4.29-.063 1.134-10.585 1.134-10.585l1.84-10.52-4.47-.264ZM111.002 67.164l7.392 7.857s8.99 6.24 5.752 9.056c-3.238 2.817-7.907-7.126-7.907-7.126l-8.392-6.607 3.155-3.18Z" fill="#FFB9B9"/><path d="m78.988 71.775 18.014-.552L96.769 70v-.006l-17.412-.315-.368 2.096Z" fill="#D0CDE1"/><path d="M82.67 72.301a1.578 1.578 0 1 0 0-3.156 1.578 1.578 0 0 0 0 3.156ZM77.015 48.76l-1.71-.394s-2.235.92-2.761 3.814c-.526 2.893-7.365 25.513-3.946 26.828 3.42 1.316 8.417 1.842 8.417 1.316S79.12 60.07 79.12 60.07l-2.104-11.31ZM93.103 49.763l5.48-1.792s2.631 0 2.631 2.894c0 1.193 5.041 10.997 5.041 10.997s12.112 8.634 10.258 8.943c-3.157.526-4.998 6.05-4.998 6.05L99.679 66.334l-6.576-16.571ZM79.369 35.533s1.96-2.695 3.675-3.185c1.715-.49 1.96-2.94 1.96-2.94s4.41 4.9 7.105 5.145c2.696.245.246-5.88.246-5.88l-4.9-1.225-4.656.49-3.675 2.45.245 5.145Z" fill="#2F2E41"/><path d="M80.829 35.346c.436 0 .79-.53.79-1.184 0-.653-.354-1.183-.79-1.183-.436 0-.79.53-.79 1.183 0 .654.354 1.184.79 1.184Z" fill="#FFB9B9"/></g><path d="M109.113 191h-3.027v-11.758h-3.877v-2.519h10.781v2.519h-3.877V191Zm10.362-9.004c-.632 0-1.127.202-1.485.606-.358.397-.563.963-.615 1.699h4.18c-.013-.736-.205-1.302-.576-1.699-.372-.404-.873-.606-1.504-.606Zm.42 9.199c-1.758 0-3.132-.485-4.122-1.455-.989-.97-1.484-2.344-1.484-4.121 0-1.829.456-3.242 1.367-4.238.918-1.003 2.184-1.504 3.799-1.504 1.543 0 2.744.439 3.604 1.318.859.879 1.289 2.093 1.289 3.643v1.445h-7.041c.032.847.283 1.507.752 1.983.468.475 1.126.713 1.972.713.658 0 1.28-.069 1.865-.206a9.25 9.25 0 0 0 1.836-.654v2.305c-.52.26-1.077.452-1.67.576-.592.13-1.315.195-2.167.195Zm9.853-.195h-2.978v-15.195h2.978V191Zm7.656-9.004c-.631 0-1.126.202-1.484.606-.358.397-.563.963-.615 1.699h4.179c-.013-.736-.205-1.302-.576-1.699-.371-.404-.872-.606-1.504-.606Zm.42 9.199c-1.758 0-3.131-.485-4.121-1.455-.989-.97-1.484-2.344-1.484-4.121 0-1.829.455-3.242 1.367-4.238.918-1.003 2.184-1.504 3.799-1.504 1.543 0 2.744.439 3.603 1.318.86.879 1.289 2.093 1.289 3.643v1.445h-7.041c.033.847.284 1.507.752 1.983.469.475 1.127.713 1.973.713.657 0 1.279-.069 1.865-.206a9.25 9.25 0 0 0 1.836-.654v2.305a6.87 6.87 0 0 1-1.67.576c-.592.13-1.315.195-2.168.195Zm16.377-11.113v1.514l-1.709.439c.313.488.469 1.035.469 1.641 0 1.172-.41 2.086-1.231 2.744-.813.651-1.946.976-3.398.976l-.537-.029-.44-.049c-.306.235-.459.495-.459.782 0 .429.547.644 1.641.644h1.856c1.197 0 2.109.257 2.734.772.631.514.947 1.269.947 2.265 0 1.276-.534 2.266-1.601 2.969-1.062.703-2.588 1.055-4.58 1.055-1.524 0-2.689-.267-3.497-.801-.8-.527-1.201-1.27-1.201-2.227 0-.657.205-1.207.616-1.65.41-.443 1.012-.759 1.806-.947a2.017 2.017 0 0 1-.801-.635c-.227-.3-.341-.615-.341-.947 0-.417.12-.762.361-1.036.241-.279.589-.553 1.045-.82a2.95 2.95 0 0 1-1.367-1.191c-.332-.547-.498-1.192-.498-1.934 0-1.191.387-2.112 1.162-2.763.774-.652 1.881-.977 3.32-.977.306 0 .667.029 1.084.088.423.052.693.091.811.117h3.808Zm-8.428 12.461c0 .41.196.732.586.967.398.234.951.351 1.661.351 1.067 0 1.904-.146 2.509-.439.606-.293.909-.693.909-1.201 0-.41-.18-.694-.538-.85-.358-.156-.911-.234-1.66-.234h-1.543c-.547 0-1.006.127-1.377.381-.364.26-.547.602-.547 1.025Zm1.084-8.887c0 .593.134 1.061.401 1.406.273.346.687.518 1.24.518.56 0 .97-.172 1.231-.518.26-.345.39-.813.39-1.406 0-1.315-.54-1.972-1.621-1.972-1.094 0-1.641.657-1.641 1.972Zm15.245-3.779c.403 0 .738.029 1.005.088l-.224 2.793a3.417 3.417 0 0 0-.879-.098c-.951 0-1.693.244-2.227.733-.527.488-.791 1.171-.791 2.05V191h-2.978v-10.918h2.256l.439 1.836h.147a4.073 4.073 0 0 1 1.367-1.475 3.388 3.388 0 0 1 1.885-.566ZM172.023 191l-.576-1.484h-.078c-.501.631-1.019 1.071-1.553 1.318-.527.241-1.217.361-2.07.361-1.048 0-1.875-.299-2.48-.898-.599-.599-.899-1.452-.899-2.559 0-1.159.404-2.011 1.211-2.558.814-.554 2.038-.86 3.672-.918l1.895-.059v-.478c0-1.107-.567-1.661-1.7-1.661-.872 0-1.897.264-3.076.791l-.986-2.011c1.256-.658 2.65-.987 4.179-.987 1.465 0 2.588.319 3.37.957.781.638 1.172 1.609 1.172 2.911V191h-2.081Zm-.878-5.059-1.153.039c-.866.027-1.51.183-1.933.469-.424.287-.635.723-.635 1.309 0 .84.482 1.26 1.445 1.26.69 0 1.24-.199 1.651-.596.416-.397.625-.925.625-1.582v-.899Zm15.81 5.059h-2.978v-6.377c0-.788-.134-1.377-.401-1.768-.26-.397-.674-.595-1.24-.595-.762 0-1.315.28-1.66.84-.345.56-.518 1.481-.518 2.763V191h-2.978v-10.918h2.275l.4 1.397h.166a2.995 2.995 0 0 1 1.27-1.172c.553-.287 1.188-.43 1.904-.43 1.634 0 2.741.534 3.321 1.602h.263c.293-.508.723-.902 1.289-1.182.573-.28 1.218-.42 1.934-.42 1.237 0 2.171.319 2.803.957.638.631.957 1.647.957 3.047V191h-2.989v-6.377c0-.788-.133-1.377-.4-1.768-.26-.397-.674-.595-1.24-.595-.729 0-1.276.26-1.641.781-.358.521-.537 1.348-.537 2.48V191Zm21.143-11.123c1.289 0 2.298.505 3.027 1.514.729 1.002 1.094 2.379 1.094 4.13 0 1.804-.378 3.2-1.133 4.19-.749.99-1.771 1.484-3.066 1.484-1.283 0-2.289-.465-3.018-1.396h-.205l-.498 1.201h-2.276v-15.195h2.979v3.535c0 .449-.039 1.168-.117 2.158h.117c.697-1.081 1.728-1.621 3.096-1.621Zm-.957 2.383c-.736 0-1.273.228-1.612.683-.338.45-.514 1.195-.527 2.237v.322c0 1.172.172 2.012.518 2.519.351.508.904.762 1.66.762.612 0 1.097-.28 1.455-.84.364-.566.547-1.386.547-2.461 0-1.074-.183-1.878-.547-2.412-.365-.54-.863-.81-1.494-.81Zm9.912 3.261c0 1.081.176 1.898.527 2.452.358.553.938.83 1.738.83.795 0 1.364-.274 1.709-.821.352-.553.528-1.373.528-2.461 0-1.08-.176-1.891-.528-2.431-.351-.541-.927-.811-1.728-.811-.794 0-1.367.27-1.719.811-.351.534-.527 1.344-.527 2.431Zm7.549 0c0 1.778-.469 3.168-1.407 4.17-.937 1.003-2.243 1.504-3.916 1.504-1.048 0-1.972-.228-2.773-.683a4.615 4.615 0 0 1-1.846-1.983c-.43-.859-.644-1.862-.644-3.008 0-1.783.465-3.17 1.396-4.16.931-.989 2.24-1.484 3.926-1.484 1.048 0 1.973.228 2.773.684a4.562 4.562 0 0 1 1.846 1.962c.43.853.645 1.853.645 2.998Zm7.06 3.301c.521 0 1.146-.114 1.875-.342v2.217c-.742.332-1.654.498-2.734.498-1.192 0-2.061-.299-2.608-.898-.54-.606-.81-1.511-.81-2.715v-5.264h-1.426v-1.259l1.641-.997.859-2.304h1.904v2.324h3.057v2.236h-3.057v5.264c0 .423.117.736.352.938.241.201.556.302.947.302ZM123.422 230h-1.297v-12.156h1.297V230Zm10.14-4.289c0 1.396-.351 2.487-1.054 3.273-.703.782-1.675 1.172-2.914 1.172-.766 0-1.446-.179-2.039-.539-.594-.359-1.052-.875-1.375-1.547-.323-.672-.485-1.458-.485-2.359 0-1.396.349-2.482 1.047-3.258.698-.781 1.667-1.172 2.906-1.172 1.198 0 2.149.399 2.852 1.196.708.796 1.062 1.875 1.062 3.234Zm-6.523 0c0 1.094.219 1.927.656 2.5.438.573 1.081.859 1.93.859s1.492-.284 1.93-.851c.442-.573.664-1.409.664-2.508 0-1.089-.222-1.914-.664-2.477-.438-.567-1.086-.851-1.946-.851-.849 0-1.489.278-1.921.836-.433.557-.649 1.388-.649 2.492Zm12.711-4.43c.38 0 .721.031 1.023.094l-.179 1.203a4.426 4.426 0 0 0-.938-.117c-.692 0-1.286.281-1.781.844-.49.562-.734 1.263-.734 2.101V230h-1.297v-8.562h1.07l.148 1.585h.063c.318-.557.701-.987 1.148-1.289a2.588 2.588 0 0 1 1.477-.453Zm6.242 8.875c-1.265 0-2.265-.385-3-1.156-.729-.771-1.094-1.841-1.094-3.211 0-1.38.339-2.477 1.016-3.289.682-.812 1.596-1.219 2.742-1.219 1.073 0 1.922.354 2.547 1.063.625.703.938 1.633.938 2.789v.82h-5.899c.026 1.005.279 1.768.758 2.289.484.521 1.164.781 2.039.781.922 0 1.833-.192 2.734-.578v1.157a6.66 6.66 0 0 1-1.304.421c-.407.089-.899.133-1.477.133Zm-.351-7.789c-.688 0-1.237.224-1.649.672-.406.448-.646 1.068-.719 1.859h4.477c0-.817-.182-1.442-.547-1.875-.364-.437-.885-.656-1.562-.656ZM162.273 230v-5.57c0-.683-.145-1.193-.437-1.532-.292-.343-.745-.515-1.359-.515-.808 0-1.404.232-1.789.695-.386.464-.579 1.177-.579 2.141V230h-1.297v-5.57c0-.683-.145-1.193-.437-1.532-.292-.343-.747-.515-1.367-.515-.813 0-1.409.245-1.789.734-.375.485-.563 1.281-.563 2.391V230h-1.297v-8.562h1.055l.211 1.171h.063a2.548 2.548 0 0 1 1.031-.976 3.179 3.179 0 0 1 1.5-.352c1.338 0 2.213.485 2.625 1.453h.062a2.723 2.723 0 0 1 1.11-1.062c.484-.261 1.036-.391 1.656-.391.969 0 1.693.25 2.172.75.484.495.726 1.289.726 2.383V230h-1.297Zm9.43 0h-1.297v-8.562h1.297V230Zm-1.406-10.883c0-.297.073-.513.219-.648a.753.753 0 0 1 .546-.211c.209 0 .389.07.54.211.151.14.226.357.226.648 0 .292-.075.511-.226.656a.764.764 0 0 1-.54.211.753.753 0 0 1-.546-.211c-.146-.145-.219-.364-.219-.656Zm8.141 11.039a3.779 3.779 0 0 1-1.532-.304 2.908 2.908 0 0 1-1.156-.954h-.094c.063.5.094.974.094 1.422v3.524h-1.297v-12.406h1.055l.18 1.171h.062c.333-.468.721-.807 1.164-1.015.443-.209.951-.313 1.524-.313 1.135 0 2.01.388 2.624 1.164.62.776.93 1.865.93 3.266 0 1.406-.315 2.5-.945 3.281-.625.776-1.495 1.164-2.609 1.164Zm-.188-7.773c-.875 0-1.508.242-1.898.726-.391.485-.592 1.256-.602 2.313v.289c0 1.203.201 2.065.602 2.586.401.515 1.044.773 1.929.773.74 0 1.318-.299 1.735-.898.422-.599.632-1.425.632-2.477 0-1.067-.21-1.885-.632-2.453-.417-.573-1.006-.859-1.766-.859Zm11.539 5.281c0 .797-.297 1.412-.891 1.844-.593.432-1.427.648-2.5.648-1.135 0-2.02-.179-2.656-.539v-1.203c.412.208.852.372 1.32.492.474.12.93.18 1.368.18.677 0 1.198-.107 1.562-.32.365-.219.547-.55.547-.993 0-.333-.146-.617-.437-.851-.287-.24-.849-.521-1.688-.844-.797-.297-1.365-.555-1.703-.773a2.42 2.42 0 0 1-.75-.758c-.162-.281-.242-.617-.242-1.008 0-.698.284-1.247.851-1.648.568-.407 1.347-.61 2.336-.61.922 0 1.823.188 2.703.563l-.461 1.054c-.859-.354-1.638-.531-2.336-.531-.614 0-1.078.097-1.39.289-.313.193-.469.459-.469.797 0 .229.057.425.172.586.12.162.31.315.57.461.261.146.761.357 1.5.633 1.016.37 1.701.742 2.055 1.117.359.375.539.846.539 1.414Zm3.336-6.226v5.554c0 .698.159 1.219.477 1.563.317.343.815.515 1.492.515.896 0 1.549-.244 1.961-.734.416-.49.625-1.289.625-2.398v-4.5h1.297V230h-1.071l-.187-1.148h-.071a2.58 2.58 0 0 1-1.109.968c-.469.224-1.005.336-1.609.336-1.042 0-1.823-.247-2.344-.742-.516-.495-.774-1.286-.774-2.375v-5.601h1.313ZM212.648 230v-5.57c0-.683-.145-1.193-.437-1.532-.292-.343-.745-.515-1.359-.515-.808 0-1.404.232-1.79.695-.385.464-.578 1.177-.578 2.141V230h-1.296v-5.57c0-.683-.146-1.193-.438-1.532-.292-.343-.747-.515-1.367-.515-.813 0-1.409.245-1.789.734-.375.485-.563 1.281-.563 2.391V230h-1.297v-8.562h1.055l.211 1.171h.062a2.557 2.557 0 0 1 1.032-.976 3.179 3.179 0 0 1 1.5-.352c1.338 0 2.213.485 2.625 1.453h.062a2.723 2.723 0 0 1 1.11-1.062c.484-.261 1.036-.391 1.656-.391.969 0 1.693.25 2.172.75.484.495.726 1.289.726 2.383V230h-1.297Z" fill="#000"/></g><defs><clipPath id="b"><path fill="#fff" transform="translate(56.937 24)" d="M0 0h222.126v130H0z"/></clipPath><filter id="a" x="0" y="0" width="336" height="276" filterUnits="userSpaceOnUse" color-interpolation-filters="sRGB"><feFlood flood-opacity="0" result="BackgroundImageFix"/><feColorMatrix in="SourceAlpha" values="0 0 0 0 0 0 0 0 0 0 0 0 0 0 0 0 0 0 127 0" result="hardAlpha"/><feOffset dy="8"/><feGaussianBlur stdDeviation="4"/><feColorMatrix values="0 0 0 0 0 0 0 0 0 0 0 0 0 0 0 0 0 0 0.1 0"/><feBlend in2="BackgroundImageFix" result="effect1_dropShadow_13_322"/><feBlend in="SourceGraphic" in2="effect1_dropShadow_13_322" result="shape"/></filter></defs></svg>